[img]http://img13.imageshack.us/img13/4868/sharkhm.jpg[/img]
[code]
Title: Shark Night 2011 R5 LiNE XviD - VISUALiSE
Format: Xvid
Language: English
Subtitles: No
Imdb: http://www.imdb.com/title/tt1633356/

Plot:
A weekend at a lake house in the Louisiana Gulf 
turns into a nightmare for seven vacationers as 
they are subjected to shark attacks. 

Sources:
Video: RELIZLAB - Many Thanks 
Audio: MiSTERE - Many Thanks As Always 

Release Notes:
Done our normal thing on this ran some filters and
a little sharpen then muxed the audio back 
to our encode  

enjoy. 

Info:

Video
ID                               : 0
Format                           : MPEG-4 Visual
Format profile                   : Advanced Simple@L5
Format settings, BVOP            : 2
Format settings, QPel            : No
Format settings, GMC             : No warppoints
Format settings, Matrix          : Default (H.263)
Codec ID                         : XVID
Codec ID/Hint                    : XviD
Duration                         : 1h 26mn
Bit rate                         : 1 498 Kbps
Width                            : 720 pixels
Height                           : 400 pixels
Display aspect ratio             : 16:9
Frame rate                       : 25.000 fps
Color space                      : YUV
Chroma subsampling               : 4:2:0
Bit depth                        : 8 bits
Scan type                        : Progressive
Compression mode                 : Lossy
Bits/(Pixel*Frame)               : 0.208
Stream size                      : 928 MiB (92%)

Audio
ID                               : 1
Format                           : MPEG Audio
Format version                   : Version 1
Format profile                   : Layer 3
Mode                             : Joint stereo
Mode extension                   : MS Stereo
Codec ID                         : 55
Codec ID/Hint                    : MP3
Duration                         : 1h 26mn
Bit rate mode                    : Constant
Bit rate                         : 128 Kbps
Channel(s)                       : 2 channels
Sampling rate                    : 44.1 KHz
Compression mode                 : Lossy
Stream size                      : 79.3 MiB (8%)
Alignment                        : Aligned on interleaves
Interleave, duration             : 40 ms (1.00 video frame)
Writing library                  : LAME3.98r
Encoding settings                : -m j -V 4 -q 2 -lowpass 17 -b 128
[/code]
Screens:
[img]http://img36.imageshack.us/img36/9233/26951576.png[/img]
[img]http://img812.imageshack.us/img812/8338/44165545.png[/img]
[img]http://img249.imageshack.us/img249/8246/50107194.png[/img]
[img]http://img191.imageshack.us/img191/9826/15467139.png[/img]
